<svg xmlns="http://www.w3.org/2000/svg" viewBox="0 0 1113.03 1366.25"><path d="M1113.04 1313.91V575.04c0-26.78-9.29-51.92-27.77-71.5-19.63-20.81-48.72-31.53-77.06-30l-66.82 3.67-127.68 7-151 8.3-136.87 7.51-85.19 4.68c-5.31.29-10.66.44-15.95 1.06-15.22 1.77-28.83 5.1-42.26 12.94-11.45 6.69-20.64 15.44-28.64 25.8-13.24 17.13-20 37.61-20.44 59.25-.33 15.49-.3 31-.45 46.49l-1.07 110.72-1.4 144.33-1.46 151.25-1.23 126.86-.72 75.34c-.06 5.27 0 10.57-.53 15.81l1.51-11.16a61.88 61.88 0 0 1-4 15.19l4.24-10a62.31 62.31 0 0 1-6.78 11.74l6.56-8.5a62.18 62.18 0 0 1-10.35 10.54l8.51-6.56a63.79 63.79 0 0 1-12.61 7.52l10-4.23a62.94 62.94 0 0 1-15.59 4.34l11.16-1.5a61.8 61.8 0 0 1-15-.07l11.16 1.5a62.78 62.78 0 0 1-13.46-3.65l10 4.23c-9.77-4.17-18.6-11-27.41-16.85l-49.44-32.8-114.41-75.91c-9.89-6.56-20.23-12.75-29.67-20l8.5 6.57a80.69 80.69 0 0 1-12-12l6.56 8.5a79.72 79.72 0 0 1-9.61-16l4.23 10a78.6 78.6 0 0 1-5.48-19.9l1.5 11.16c-.94-8.3-.53-16.77-.47-25.11l.29-46.51 1-155.3 1.19-188.85 1-163.07c.16-25.44.13-50.88.48-76.31 0-3.13.23-6.24.59-9.35l-1.5 11.17a77.59 77.59 0 0 1 5.38-19.62l-4.23 10a79.71 79.71 0 0 1 9.32-15.58l-6.56 8.5A79.41 79.41 0 0 1 104 443.85l-8.5 6.57a78.35 78.35 0 0 1 15.81-9.24l-10 4.23a78.61 78.61 0 0 1 18.11-5.05l-11.17 1.5c9.72-1.27 19.61-1.56 29.38-2.24l62.84-4.44 151.66-10.58 43.79-3.05c8.92-.63 17.94-1.4 26.59-3.63 26.13-6.73 49-24.45 63-47.37 13.13-21.51 14.69-45.11 15.26-69.33l1.52-66c1-40.72 1.75-81.44 2.83-122.16a94.59 94.59 0 0 1 .78-10.08l-1.58 11.2a78.55 78.55 0 0 1 4.52-16.56l-4.23 10a77.26 77.26 0 0 1 9.08-16l-6.56 8.5a77.69 77.69 0 0 1 14-14l-8.5 6.57a78.53 78.53 0 0 1 15.84-9.04l-10 4.24a76.93 76.93 0 0 1 17.87-4.81l-11.16 1.5a78.31 78.31 0 0 1 19.23.08l-11.17-1.5 91.17 12.6 139.39 19.26c13.83 1.91 28.73 2.75 41.75 8.08l-10-4.24a72.91 72.91 0 0 1 14.56 8.56l-8.5-6.57a73 73 0 0 1 11.8 11.84l-6.57-8.5a72.65 72.65 0 0 1 8.48 14.47l-4.24-10a72.9 72.9 0 0 1 4.58 16.46l-1.51-11.16c2.18 17 .84 35 1 52.09l.37 49.64 20.8-36.26-60.85 40.53h42.39l-62.87-26.6c-10.87-4.59-20.46-7.51-32.37-4.23-9.74 2.68-20.3 10.21-25.1 19.3-5.15 9.75-7.73 21.56-4.23 32.36 3.11 9.63 9.52 21 19.3 25.1l37.8 16 20.74 8.77 4.22 1.79c3.37 1.42 8.07 3.71 10.15 4.28a42.33 42.33 0 0 0 32.36-4.24c3.86-2.23 7.49-5 11.2-7.47l33.41-22.36c8.22-5.49 17.28-10.61 24.56-17.3 8.78-8 12.2-19.95 12.29-31.46.13-14.69-.21-29.4-.32-44.08q-.16-22.49-.33-44.95c-.27-29.84-11.52-59.84-34-80.18-15.94-14.44-35.46-24.69-56.86-27.65l-27.57-3.81L579.62 5.5l-22.85-3.16C547.63 1.09 538.55-.5 529.3.15c-18.95 1.35-37.41 6.17-53.69 16.28-32.84 20.4-52.67 55.1-54.56 93.59-.33 6.75-.33 13.52-.49 20.27l-4.19 184.72c-.08 3.44-.22 6.85-.64 10.29l1.5-11.17a68.55 68.55 0 0 1-4.66 16.57l4.24-10a70.37 70.37 0 0 1-7.73 13.06l6.57-8.5a69.69 69.69 0 0 1-11.9 11.82l8.5-6.57a70 70 0 0 1-13.16 7.67l10-4.24a68.75 68.75 0 0 1-16.73 4.54l11.17-1.5c-26.36 3-53.1 3.81-79.54 5.65l-141.83 9.9-51.86 3.61c-13.35.94-27.05 1.4-40.08 4.54-21.06 5.08-42.32 17.6-56.44 34.09-17.29 20.19-26.75 42.91-29.32 69.31-.53 5.46-.41 11-.44 16.46l-.47 73.58-.78 122.93-.92 145.74-.9 140.39-.67 107c-.1 15.61-.34 31.24-.3 46.86.11 40.19 20.54 75.29 53.48 97.56 8.43 5.7 17 11.25 25.43 16.88l113.71 75.43 48.87 32.27c8.36 5.55 16.72 12 25.83 16.3 22.35 10.56 46.84 14 71 7.3 23.37-6.49 42.2-21.19 56.13-40.68 12-16.73 16.39-37.47 16.58-57.7l.58-60.11 1.11-114.45 1.37-142 1.4-144.69 1.17-120.67.68-70.34a142.81 142.81 0 0 1 .59-15.62l-1.5 11.16a62.92 62.92 0 0 1 4.06-14.88l-4.24 10a63.58 63.58 0 0 1 6.78-11.62l-6.57 8.5a63.56 63.56 0 0 1 10.57-10.74l-8.5 6.56a63.76 63.76 0 0 1 13.13-7.64l-10 4.24a64.42 64.42 0 0 1 13.34-3.7l-11.16 1.5c20.44-2.72 41.58-2.53 62.15-3.66l140.48-7.71 170.19-9.35 146-8c22.63-1.25 45.26-2.71 67.9-3.73a68.42 68.42 0 0 1 10.9.35l-11.17-1.5a63.11 63.11 0 0 1 14.61 3.92l-10-4.23a63.23 63.23 0 0 1 12.8 7.46l-8.5-6.57a63.47 63.47 0 0 1 10.41 10.44l-6.56-8.5a63.08 63.08 0 0 1 7.43 12.86l-4.23-10a63.18 63.18 0 0 1 3.87 14.74l-1.5-11.16c.9 8.35.43 16.94.43 25.33v631c0 30.35-.49 60.73 0 91.08v1.26c0 22 19.32 43 42 42s42-18.46 42-42z"/></svg>