<svg xmlns="http://www.w3.org/2000/svg" viewBox="0 0 50 18" overflow="visible"><g fill="#FFF"><path d="M7.369 8.519l.181-.99h2.214l.737-3.618h1.044l-.737 3.618h2.735l.738-3.618h1.044l-.738 3.618h2.431l-.181.99h-2.466l-.521 2.556h2.483l-.18.99h-2.502l-.774 3.853h-1.062l.792-3.853H9.871l-.773 3.853H8.035l.792-3.853H6.686l.18-.99h2.16l.521-2.556H7.369zm3.223 0l-.522 2.556h2.736l.521-2.556h-2.735zM18.583 10.211c0-1.249.36-2.322 1.08-3.223.721-.9 1.734-1.35 3.042-1.35 1.272 0 2.25.411 2.935 1.233.684.822 1.025 1.815 1.025 2.979 0 .804-.135 1.548-.404 2.231-.271.685-.729 1.264-1.377 1.737-.648.474-1.429.711-2.341.711-1.224 0-2.189-.432-2.897-1.296-.708-.862-1.063-1.871-1.063-3.022zm1.404-.162c0 .875.237 1.638.711 2.285.474.648 1.113.973 1.917.973.864 0 1.521-.321 1.971-.963.45-.643.676-1.42.676-2.331 0-.852-.229-1.59-.685-2.214-.456-.624-1.104-.936-1.943-.936-.816 0-1.462.318-1.936.954-.473.636-.711 1.38-.711 2.232zM28.465 10.211c0-1.249.36-2.322 1.08-3.223.721-.9 1.734-1.35 3.042-1.35 1.272 0 2.25.411 2.935 1.233.684.822 1.025 1.815 1.025 2.979 0 .804-.135 1.548-.404 2.231-.271.685-.729 1.264-1.377 1.737-.648.474-1.429.711-2.341.711-1.224 0-2.189-.432-2.897-1.296-.709-.862-1.063-1.871-1.063-3.022zm1.404-.162c0 .875.237 1.638.711 2.285.474.648 1.113.973 1.917.973.864 0 1.521-.321 1.971-.963.45-.643.676-1.42.676-2.331 0-.852-.229-1.59-.685-2.214-.456-.624-1.104-.936-1.943-.936-.816 0-1.462.318-1.936.954-.474.636-.711 1.38-.711 2.232zM38.365 14.314v-1.206h1.89V6.97h-1.764V5.854h3.168v7.254h1.764v1.206h-5.058z"/></g></svg>