<svg xmlns="http://www.w3.org/2000/svg" viewBox="0 0 39.51 13.88"><defs><style>.cls-2{fill:#fff}</style></defs><g style="isolation:isolate"><path class="cls-2" d="M.68 4.61l.18-1h2.21l.74-3.62h1l-.65 3.63h2.69L7.59 0h1.05L7.9 3.62h2.43l-.18 1H7.68l-.52 2.55h2.48l-.18 1h-2.5l-.8 3.84h-1l.79-3.85H3.16l-.77 3.85H1.35l.81-3.85H0l.18-1h2.16l.52-2.55zm3.22 0l-.52 2.56h2.78l.52-2.56zM11.89 6.3a5 5 0 0 1 1.08-3.22 3.69 3.69 0 0 1 3-1.35 3.59 3.59 0 0 1 2.98 1.22 4.54 4.54 0 0 1 1 3 6 6 0 0 1-.41 2.23 3.86 3.86 0 0 1-1.38 1.77 3.78 3.78 0 0 1-2.34.71 3.53 3.53 0 0 1-2.89-1.29 4.66 4.66 0 0 1-1.04-3.07zm1.41-.16a3.8 3.8 0 0 0 .71 2.29 2.26 2.26 0 0 0 1.92 1 2.26 2.26 0 0 0 2-1 4 4 0 0 0 .67-2.34 3.67 3.67 0 0 0-.68-2.21 2.46 2.46 0 0 0-3.88 0 3.64 3.64 0 0 0-.74 2.26zM21.78 6.3a5 5 0 0 1 1.08-3.22 3.67 3.67 0 0 1 3-1.35 3.59 3.59 0 0 1 2.97 1.22 4.48 4.48 0 0 1 1 3 6 6 0 0 1-.41 2.23 3.91 3.91 0 0 1-1.34 1.77 3.82 3.82 0 0 1-2.34.71 3.55 3.55 0 0 1-2.9-1.29 4.65 4.65 0 0 1-1.06-3.07zm1.4-.16a3.8 3.8 0 0 0 .71 2.29 2.44 2.44 0 0 0 3.89 0 4 4 0 0 0 .67-2.34 3.61 3.61 0 0 0-.68-2.21 2.46 2.46 0 0 0-3.88 0 3.64 3.64 0 0 0-.73 2.26zM31.26 9.95v-1l5.35-7.25h1.19v7.06h1.71v1.19H37.8v3.94h-1.41V9.95zm1.53-1.15h3.6V3.95z"/></g></svg>