<svg xmlns="http://www.w3.org/2000/svg" viewBox="0 0 50 18" overflow="visible"><g fill="#FFF"><path d="M6.632 8.519l.18-.99h2.214l.738-3.618h1.044l-.738 3.618h2.736l.738-3.618h1.044l-.738 3.617h2.43l-.18.99h-2.466l-.522 2.556h2.484l-.18.99h-2.503l-.773 3.853h-1.062l.792-3.853H9.134l-.774 3.853H7.298l.792-3.853H5.947l.181-.99h2.159l.523-2.555H6.632zm3.222 0l-.521 2.556h2.735l.522-2.556H9.854zM17.846 10.211c0-1.249.359-2.322 1.08-3.223.72-.9 1.733-1.35 3.042-1.35 1.271 0 2.25.411 2.934 1.233.685.822 1.026 1.815 1.026 2.979 0 .804-.135 1.548-.405 2.231-.27.685-.729 1.264-1.377 1.737s-1.428.711-2.34.711c-1.224 0-2.19-.432-2.898-1.296-.709-.862-1.062-1.871-1.062-3.022zm1.404-.162c0 .875.236 1.638.711 2.285.474.648 1.112.973 1.917.973.863 0 1.521-.321 1.971-.963.45-.643.675-1.42.675-2.331 0-.852-.228-1.59-.684-2.214-.456-.624-1.104-.936-1.944-.936-.816 0-1.461.318-1.935.954-.475.636-.711 1.38-.711 2.232zM27.728 10.211c0-1.249.359-2.322 1.08-3.223.72-.9 1.733-1.35 3.042-1.35 1.271 0 2.25.411 2.934 1.233.685.822 1.026 1.815 1.026 2.979 0 .804-.135 1.548-.405 2.231-.27.685-.729 1.264-1.377 1.737s-1.428.711-2.34.711c-1.224 0-2.19-.432-2.898-1.296-.709-.862-1.062-1.871-1.062-3.022zm1.404-.162c0 .875.236 1.638.711 2.285.474.648 1.112.973 1.917.973.863 0 1.521-.321 1.971-.963.45-.643.675-1.42.675-2.331 0-.852-.228-1.59-.684-2.214-.456-.624-1.104-.936-1.944-.936-.816 0-1.461.318-1.935.954-.475.636-.711 1.38-.711 2.232zM37.663 14.314l-.144-.918c.119-.084.275-.198.468-.342.191-.145.531-.43 1.017-.855.486-.426.918-.84 1.296-1.242a7.806 7.806 0 0 0 1.026-1.368c.306-.51.459-.963.459-1.359 0-.408-.142-.738-.423-.99-.282-.252-.646-.378-1.089-.378-.324 0-.663.069-1.018.207a4.1 4.1 0 0 0-.818.405l-.27.216-.611-.918c.096-.084.233-.189.413-.315.181-.126.528-.294 1.045-.504a3.954 3.954 0 0 1 1.493-.315c.792 0 1.449.231 1.972.693.521.462.782 1.035.782 1.719 0 .457-.104.918-.314 1.386-.21.468-.522.937-.937 1.403-.413.469-.789.859-1.125 1.17-.336.312-.756.679-1.26 1.099h4.393v1.206h-6.355z"/></g></svg>