<svg xmlns="http://www.w3.org/2000/svg" viewBox="0 0 37.12 13.84"><defs><style>.cls-1{fill:#fff}</style></defs><path d="M7.05 8.52l.18-1h2.21l.74-3.62h1l-.74 3.62h2.74L14 3.91h1l-.74 3.62h2.43l-.18 1h-2.46l-.52 2.55H16l-.18 1h-2.5l-.78 3.86h-1.05l.79-3.86H9.55l-.78 3.86H7.71l.79-3.86H6.36l.18-1H8.7l.52-2.55zm3.22 0l-.52 2.55h2.73L13 8.52zM18.26 10.21A5 5 0 0 1 19.34 7a3.67 3.67 0 0 1 3-1.35 3.63 3.63 0 0 1 2.94 1.23 4.53 4.53 0 0 1 1 3 6 6 0 0 1-.4 2.23 3.91 3.91 0 0 1-3.72 2.45 3.54 3.54 0 0 1-2.9-1.3 4.6 4.6 0 0 1-1-3.05zm1.4-.16a3.77 3.77 0 0 0 .71 2.28 2.27 2.27 0 0 0 1.92 1 2.23 2.23 0 0 0 2-1 4 4 0 0 0 .65-2.33 3.61 3.61 0 0 0-.69-2.21 2.24 2.24 0 0 0-1.94-.94 2.29 2.29 0 0 0-1.94 1 3.64 3.64 0 0 0-.71 2.2zM28.14 10.21A5 5 0 0 1 29.22 7a3.68 3.68 0 0 1 3-1.35 3.62 3.62 0 0 1 2.98 1.22 4.53 4.53 0 0 1 1 3 6 6 0 0 1-.4 2.23 3.91 3.91 0 0 1-3.72 2.45 3.54 3.54 0 0 1-2.9-1.3 4.65 4.65 0 0 1-1.04-3.04zm1.41-.16a3.71 3.71 0 0 0 .71 2.28 2.42 2.42 0 0 0 3.88 0 4 4 0 0 0 .68-2.33 3.67 3.67 0 0 0-.68-2.21 2.46 2.46 0 0 0-3.88 0 3.58 3.58 0 0 0-.71 2.26zM37.63 16.62h.54a4.87 4.87 0 0 0 2.73-.72A2.21 2.21 0 0 0 42 14a1.66 1.66 0 0 0-.8-1.54 3.86 3.86 0 0 0-2-.47h-.5V10.8a3.68 3.68 0 0 0 2-.92 2.32 2.32 0 0 0 1-1.72 1.23 1.23 0 0 0-.4-1 1.51 1.51 0 0 0-1-.35 3 3 0 0 0-1.05.21 4.44 4.44 0 0 0-.84.4l-.28.22-.62-.92c.1-.08.24-.19.42-.31a5.48 5.48 0 0 1 1-.51 4 4 0 0 1 1.51-.31 2.91 2.91 0 0 1 1.95.66A2.19 2.19 0 0 1 43.17 8a2.63 2.63 0 0 1-.64 1.72A5.58 5.58 0 0 1 41 11a3.21 3.21 0 0 1 1.84 1 2.69 2.69 0 0 1 .65 1.82A3.33 3.33 0 0 1 42 16.67a6.19 6.19 0 0 1-3.77 1.08 3.19 3.19 0 0 1-.49 0z" class="cls-1" transform="translate(-6.36 -3.91)"/></svg>